<svg id="Layer_1" data-name="Layer 1" xmlns="http://www.w3.org/2000/svg" viewBox="0 0 442.27 415.87"><defs><style>.cls-1{fill:#afc3cd;}.cls-2{fill:none;stroke:#afc3cd;stroke-miterlimit:10;stroke-width:15px;}</style></defs><title>calendar</title><path class="cls-1" d="M407.77,83V380.83h-372V83h372m35-35H.77V415.83h442V48Z" transform="translate(-0.5 0.04)"/><line class="cls-2" x1="41" y1="83.04" x2="41" y2="382.04"/><line class="cls-2" x1="410" y1="382.54" x2="48" y2="381.54"/><line class="cls-2" x1="442" y1="47.54" y2="47.54"/><rect class="cls-1" x="241.83" width="50" height="100.02" rx="6" ry="6"/><rect class="cls-1" x="151.17" width="50" height="100.02" rx="6" ry="6"/><rect class="cls-1" x="60.5" width="50" height="100.02" rx="6" ry="6"/><rect class="cls-1" x="332.5" width="50" height="100.02" rx="6" ry="6"/><rect class="cls-1" x="112.31" y="131.74" width="43.94" height="39.6"/><rect class="cls-1" x="112.31" y="214.91" width="43.94" height="39.6"/><rect class="cls-1" x="112.31" y="298.07" width="43.94" height="39.6"/><rect class="cls-1" x="198.74" y="133.74" width="43.94" height="39.6"/><rect class="cls-1" x="198.74" y="216.91" width="43.94" height="39.6"/><rect class="cls-1" x="198.74" y="300.07" width="43.94" height="39.6"/><rect class="cls-1" x="286.16" y="133.74" width="43.94" height="39.6"/><rect class="cls-1" x="286.16" y="216.91" width="43.94" height="39.6"/><rect class="cls-1" x="286.16" y="300.07" width="43.94" height="39.6"/><text x="-0.5" y="0.04"></text></svg>